<?xml version="1.0" encoding="utf-8"?>
<!-- Generator: Adobe Illustrator 19.0.0, SVG Export Plug-In . SVG Version: 6.00 Build 0)  -->
<svg version="1.1"
	 id="Layer_1" xmlns:cc="http://creativecommons.org/ns#" xmlns:dc="http://purl.org/dc/elements/1.1/" xmlns:rdf="http://www.w3.org/1999/02/22-rdf-syntax-ns#"
	 xmlns="http://www.w3.org/2000/svg" xmlns:xlink="http://www.w3.org/1999/xlink" x="0px" y="0px" viewBox="-209 199 540 164"
	 style="enable-background:new -209 199 540 164;" xml:space="preserve">
<style type="text/css">
	.st0{fill:#32B2FD;}
	.st1{fill:#FE5A5A;}
	.st2{fill:#FFFFFF;}
</style>
<g transform="translate(.14071 -4.6474)">
	<path class="st0" d="M-9.8,344.4c-2.2-0.8-5.1-2.6-6.5-4l-2.6-2.7l4,2.7c3.7,2.5,4.5,2.7,12,2.2c4.7-0.3,12.3-1.8,18.4-3.7
		c14-4.2,19-5.1,23.5-4c5.7,1.3,6,2.5,0.8,2.7c-2.6,0.1-8.4,1.3-13,2.8C9.7,345.9-2,347.2-9.8,344.4L-9.8,344.4z M118.7,344.5
		c-2.3-1.3-2.1-1.4,3.5-0.9c7.3,0.7,13.5-1.5,13.5-4.6c0-2.9-3.5-4.4-8.4-3.7c-2.3,0.4-9.1,2.2-15.1,4.2c-12.7,4.1-21.7,4.7-27.5,2
		c-2.5-1.2-2.8-1.5-1.1-1.2c4.1,0.8,16.1-1.2,26.4-4.4c12.1-3.7,20.1-4.1,24-1c3.3,2.6,3.3,4.9,0.1,7.9
		C131.1,345.8,122.5,346.7,118.7,344.5L118.7,344.5z M-9.8,338.4c-4.2-2.3-4.2-2.3,0.9-1.8c3.5,0.4,7.1-0.4,15.8-3.2
		c12.8-4.3,22.5-5.4,29.3-3.5c2.5,0.7,4.7,1.5,4.9,1.9c0.2,0.3-3.7,0.7-8.8,0.7c-7.3,0.1-11.2,0.8-19.1,3.3
		C0.6,339.8-5.9,340.5-9.8,338.4L-9.8,338.4z M81,336.9c-4.6-1.4-4.8-2.5-0.3-2.1c2.3,0.2,6.9-0.6,11.7-2.2
		c18.5-6.1,29.5-7.6,37.6-5.2c3,0.9,6.5,2.5,7.8,3.6l2.4,2l-4.5-2c-2.5-1.1-5.9-2-7.7-2c-4.2,0-15.7,2.4-25.9,5.5
		C92.4,337.4,85.4,338.2,81,336.9L81,336.9z M-12.4,329.6c3.1-3.4,9.4-4.4,14.4-2.3c4.8,2,4.6,2.6-0.6,1.5c-5-1-10.3-0.3-13.8,1.8
		l-2.5,1.5L-12.4,329.6z M184.2,303.5c-0.5-0.2-2.2-0.7-3.8-1c-4.5-1-10.4-7.1-12.9-13.4c-3-7.6-3.3-25-0.6-32.8
		c5.7-16.3,23-21.2,33.9-9.7c5,5.2,7.2,11.8,7.6,23c0.6,15.7-3.4,26.5-11.6,31.2C193.2,302.7,186.3,304.2,184.2,303.5L184.2,303.5z
		 M193.3,299c7.9-3.6,11.4-11.8,11.4-27.1c0-16.2-4.4-25.2-13.8-28c-7.9-2.4-15.3,1.7-19.6,11c-1.8,3.8-2.1,6.4-2.1,17.1
		c0,12,0.1,12.8,3,18.4c2.3,4.6,4,6.4,7.4,8.2C184.9,301.4,187.8,301.5,193.3,299L193.3,299z M283.2,303.4c-0.5-0.2-2.2-0.6-3.8-1
		c-4.2-0.9-10.2-7-12.8-12.8c-1.6-3.7-2.4-7.9-2.7-14.4c-1.1-21.6,7.1-34.7,21.8-34.7c8.8,0,14.8,4.3,19.2,13.8
		c2,4.4,2.3,6.6,2.3,17.5s-0.3,13.1-2.3,17.5c-2.5,5.5-6.3,10-10.2,12C292,302.7,284.8,304,283.2,303.4L283.2,303.4z M292.7,298.7
		c3.6-1.8,5-3.4,7.5-8.3c2.9-5.7,3-6.6,3-18.6s-0.1-12.8-3-18.5c-2.4-4.7-3.9-6.4-7.5-8.2c-8.5-4.4-17-1-21.7,8.6
		c-2.6,5.4-2.8,6.5-2.8,18.7c0,12.6,0.1,13.2,3,18.5c2.3,4.2,4.1,6,7.5,7.8c2.5,1.2,5.6,2.3,7,2.3S290.2,299.9,292.7,298.7
		L292.7,298.7z M116.7,302.3c0,0,7-8,15.5-17c15.9-16.8,19.4-21.9,19.4-28.4c0-4.1-2.8-9.2-6.4-11.6c-3.5-2.3-11.6-2.2-15.8,0.2
		c-2,1.1-4.2,3.8-5.6,6.6c-1.9,6.9-5.8,6.6-4.7,2c2.1-8.4,9.2-13.6,18.5-13.6c15.1,0,22.2,13.4,14.3,27.1
		c-1.4,2.4-8.3,10.3-15.4,17.6c-7.1,7.3-12.9,14-12.9,14s6.4,0.5,14.2,0.4l14.2-0.3l0.9-3.8c1.4-5.9,3.7-4.9,3.7,1.8v5.5"/>
	<path class="st1" d="M12.1,302.3c-4.8-1.2-13.1-4.7-14.7-6.1c-0.2-0.2,4.1-9.9,4.1-9.9l6.7,3.3c12.3,6.1,24.2,5,25-2.4
		c0.4-4.4-2.9-6.7-14.7-10.3c-5.3-1.6-11.1-3.9-12.9-5c-7.8-4.8-8.2-17-0.8-24.8c6.5-6.8,20.6-8,32.4-2.7l6.1,2.7
		c0,0-4.3,8.4-4.5,8.6c-0.2,0.2-2.5-0.7-5.1-2c-2.8-1.4-7.3-2.5-10.8-2.7c-5-0.3-6.5,0-8.8,1.8c-2.2,1.7-2.7,2.9-2.5,5.3
		c0.4,4.1,4.7,6.9,13.5,9.1c9.2,2.3,15.3,5.5,18.1,9.6c3.1,4.6,2.8,13.9-0.8,18.8C37.6,302.3,23.9,305.3,12.1,302.3L12.1,302.3z
		 M-177.1,281.5c4.6-11.7,10.1-25.6,12.2-30.8l3.8-9.5h9.1c0,0,23,58.8,24,61.5h-11.4l-2.9-7.8l-2.8-7.4l-22.7,0.1l-5.9,15.1h-11.8
		L-177.1,281.5z M-147.7,279l-8.6-23.9l-9.6,23.9H-147.7L-147.7,279z M-123.7,293.4c0,0.4,35.4-42.7,35.4-42.7h-34.4v-10h47.5v9.1
		L-92,270.7c-9.2,11.5-17.7,21.8-17.7,22.1c0,0.3,35-0.1,35-0.1v10h-49V293.4z M-51.8,300c-6.7-3.4-11.1-9.6-12.8-17.8
		c-0.6-3.2-1.2-13.8-1.2-23.6v-17.8H-55l0.5,19.7c0.3,12.4,0.9,20.9,1.7,22.8c4.1,10,15.4,13.3,23.1,6.8c6-5.1,6.4-6.9,6.8-29.1
		l0.4-20.3h11l-0.4,21.3c-0.3,19.7-0.5,21.6-2.7,26.5c-2.5,5.7-7.5,10.7-12.8,12.9c-1.8,0.8-6.7,1.4-11.1,1.4
		C-45.1,302.8-47.2,302.3-51.8,300L-51.8,300z"/>
	<polygon class="st1" points="60.3,321.7 64.2,329.7 73.1,331 66.7,337.3 68.2,346.1 60.3,341.9 52.4,346.1 53.9,337.3 47.5,331
		56.3,329.7 	"/>
</g>
<path class="st1" d="M57.1,276.6c4.6-11.7,10.1-25.6,12.2-30.8l3.8-9.5h9.1c0,0,23,58.8,24,61.5H94.8l-2.9-7.8l-2.8-7.4l-22.7,0.1
	l-5.9,15.2H48.6L57.1,276.6z"/>
<polygon class="st2" points="86.4,274 77.8,250.1 68.2,274 "/>
<path class="st0" d="M215.6,296c0,0,7-8,15.5-17c15.9-16.8,19.4-21.9,19.4-28.4c0-4.1-2.8-9.2-6.4-11.6c-3.5-2.3-11.6-2.2-15.8,0.2
	c-2,1.1-4.2,3.8-5.6,6.6c-1.9,6.9-5.8,6.6-4.7,2c2.1-8.4,9.2-13.6,18.5-13.6c15.1,0,22.2,13.4,14.3,27.1
	c-1.4,2.4-8.3,10.3-15.4,17.6c-7.1,7.3-12.9,14-12.9,14s6.4,0.5,14.2,0.4l14.2-0.3l0.9-3.8c1.4-5.9,3.7-4.9,3.7,1.8v5.5"/>
</svg>
