<?xml version="1.0" encoding="UTF-8"?>
<!-- Created with Inkscape (http://www.inkscape.org/) -->
<svg width="540" height="164" version="1.1" viewBox="0 0 540 164" xmlns="http://www.w3.org/2000/svg" xmlns:cc="http://creativecommons.org/ns#" xmlns:dc="http://purl.org/dc/elements/1.1/" xmlns:rdf="http://www.w3.org/1999/02/22-rdf-syntax-ns#">
 <metadata>
  <rdf:RDF>
   <cc:Work rdf:about="">
    <dc:format>image/svg+xml</dc:format>
    <dc:type rdf:resource="http://purl.org/dc/dcmitype/StillImage"/>
    <dc:title/>
   </cc:Work>
  </rdf:RDF>
 </metadata>
 <g transform="translate(.14071 -4.6474)">
  <path d="m199.58 135.52c-2.1542-0.76758-5.0792-2.5884-6.5-4.0463l-2.5832-2.6507 4 2.695c3.7352 2.5166 4.5297 2.6605 12 2.173 4.6847-0.30571 12.311-1.8224 18.403-3.6598 13.965-4.2119 18.968-5.0717 23.528-4.0434 5.7 1.2856 6.0461 2.4981 0.75696 2.6517-2.5784 0.0749-8.4372 1.3436-13.02 2.8193-17.113 5.511-28.857 6.8147-36.585 4.0611zm128.42 0.0817c-2.3309-1.3484-2.094-1.4097 3.5033-0.90574 7.3172 0.65875 13.497-1.4503 13.497-4.6064 0-2.8865-3.5152-4.4175-8.3833-3.6511-2.2642 0.35649-9.0667 2.2457-15.117 4.1982-12.658 4.085-21.741 4.749-27.5 2.0102-2.4743-1.1768-2.7885-1.5288-1.0721-1.2012 4.1277 0.78785 16.107-1.2027 26.445-4.3944 12.066-3.725 20.082-4.0509 23.992-0.97541 3.2978 2.5941 3.3396 4.9167 0.14255 7.9202-3.1092 2.921-11.697 3.8101-15.508 1.6055zm-128.47-6.1008c-4.1805-2.2645-4.1521-2.3223 0.86472-1.7569 3.4603 0.39003 7.0847-0.35395 15.799-3.2431 12.838-4.256 22.492-5.4063 29.322-3.4939 2.4961 0.69886 4.7052 1.5464 4.9091 1.8835 0.20396 0.33706-3.7451 0.66558-8.7758 0.73005-7.2628 0.0931-11.186 0.76433-19.05 3.2592-12.703 4.0303-19.122 4.7596-23.07 2.6211zm90.772-1.548c-4.6185-1.4158-4.7618-2.5465-0.2686-2.118 2.349 0.22401 6.9201-0.63177 11.666-2.184 18.524-6.0587 29.536-7.594 37.618-5.2446 2.9964 0.87106 6.514 2.4865 7.8169 3.5898l2.369 2.0061-4.5-1.9774c-2.475-1.0876-5.9331-1.9873-7.6846-1.9994-4.2177-0.0291-15.744 2.4345-25.938 5.5438-9.6943 2.9569-16.645 3.743-21.078 2.3838zm-93.413-7.2645c3.1239-3.4086 9.4167-4.4212 14.438-2.3232 4.8461 2.0248 4.6489 2.5574-0.57366 1.549-5.0459-0.9743-10.299-0.26922-13.75 1.8456l-2.5 1.532zm196.61-26.132c-0.55-0.20801-2.2488-0.65399-3.7752-0.99106-4.5198-0.9981-10.402-7.1153-12.875-13.39-2.9784-7.5557-3.2797-25.008-0.56596-32.782 5.6728-16.25 23-21.221 33.913-9.73 4.9778 5.2416 7.1608 11.827 7.6113 22.96 0.63694 15.74-3.3922 26.53-11.637 31.163-3.6397 2.0456-10.576 3.5617-12.671 2.7694zm9.0989-4.4586c7.9483-3.6097 11.401-11.829 11.401-27.139 0-16.163-4.4473-25.212-13.763-28.003-7.947-2.381-15.288 1.7499-19.634 11.047-1.7873 3.8242-2.1031 6.3878-2.1031 17.071 0 12 0.13613 12.836 3 18.423 2.3429 4.5704 3.9654 6.362 7.4073 8.1793 5.2969 2.7967 8.2608 2.888 13.692 0.42155zm89.901 4.4365c-0.55-0.19587-2.2488-0.63191-3.7752-0.96897-4.2195-0.93179-10.221-6.9669-12.75-12.82-1.5929-3.6876-2.408-7.947-2.7493-14.367-1.147-21.574 7.0887-34.698 21.774-34.698 8.8309 0 14.812 4.307 19.196 13.823 2.0153 4.3742 2.3036 6.5645 2.3036 17.5s-0.28832 13.126-2.3036 17.5c-2.5365 5.5054-6.3497 9.9823-10.196 11.971-2.6537 1.372-9.8249 2.6566-11.5 2.06zm9.5381-4.7811c3.6148-1.8229 5.0314-3.389 7.4619-8.25 2.856-5.7121 3-6.6033 3-18.571 0-11.991-0.13869-12.844-3.0054-18.5-2.4062-4.7471-3.9016-6.3904-7.5-8.2417-8.5096-4.3781-16.965-1.0211-21.696 8.6142-2.6286 5.3528-2.7982 6.4864-2.7982 18.698 0 12.556 0.10256 13.188 3 18.5 2.2899 4.1981 4.0562 6.0326 7.4619 7.75 2.454 1.2375 5.6212 2.25 7.0381 2.25s4.5841-1.0125 7.0381-2.25zm-176.04 3.6642c0-0.32219 6.99-7.9565 15.533-16.965 15.899-16.765 19.407-21.898 19.441-28.449 0.0213-4.0938-2.8137-9.1934-6.4271-11.561-3.4862-2.2842-11.584-2.175-15.757 0.21244-1.972 1.1282-4.2338 3.7783-5.646 6.6154-2.633 5.2895-5.8391 6.6498-4.6744 1.9832 2.0955-8.396 9.1534-13.564 18.53-13.57 15.102-0.0087 22.171 13.39 14.312 27.129-1.3557 2.3699-8.2804 10.299-15.388 17.62s-12.923 13.607-12.923 13.969 6.3962 0.53288 14.214 0.38028l14.214-0.27746 0.88562-3.75c1.4029-5.9404 3.687-4.8563 3.687 1.75v5.5h-20c-11 0-20-0.26361-20-0.5858zm99-0.30773c0-0.49144 6.9238-8.0647 15.386-16.83 8.4624-8.7648 16.12-17.355 17.017-19.089 5.7432-11.106 0.19458-22.319-11.129-22.49-6.7263-0.10147-11.149 2.5808-14.13 8.5692-1.2959 2.6033-2.9834 4.7332-3.75 4.7332-1.857 0-1.7276-1.6685 0.51152-6.5989 5.1299-11.296 22.167-13.471 31.049-3.9638 1.9454 2.0822 2.5394 3.9588 2.8633 9.0452 0.58816 9.237-1.5236 12.803-17.34 29.285-7.4128 7.7246-13.478 14.312-13.478 14.638 0 0.32652 6.3141 0.59368 14.031 0.59368 10.353 0 14.132-0.32769 14.416-1.25 0.2118-0.6875 0.65625-2.4875 0.98767-4s1.269-2.75 2.0835-2.75c1.1284 0 1.481 1.3092 1.481 5.5v5.5h-20c-11.078 0-20-0.39861-20-0.89353z" fill="#32b2fd"/>
  <path d="m262.6 138.83c0.31769-1.8317 0.77929-3.9704 1.0258-4.7526 0.2465-0.78225-1.2338-3.1448-3.2895-5.25l-3.7377-3.8277 2.953-0.0136c5.3047-0.0245 7.0958-1.0624 9.1489-5.3016l2.0178-4.1662 2.1005 4.1174c2.2572 4.4245 3.7053 5.364 8.2675 5.364 3.6899 0 3.6718 0.90383-0.0903 4.5082-2.7947 2.6775-2.9618 3.2343-2.3516 7.8345l0.65692 4.9521-4.1494-2.3321-4.1494-2.3321-3.749 1.9086c-2.0619 1.0498-4.0824 2.069-4.49 2.2651-0.40759 0.19604-0.48115-1.1422-0.16347-2.9739zm-41.835-46.325c-4.7788-1.2108-13.071-4.674-14.68-6.1311-0.23076-0.20899 0.5879-2.531 1.8193-5.16l2.2388-4.78 6.7143 3.3328c12.322 6.1164 24.235 4.9699 24.952-2.4014 0.42416-4.3627-2.8562-6.6741-14.687-10.348-5.2899-1.6429-11.108-3.9037-12.928-5.0241-7.7787-4.7867-8.182-16.973-0.82029-24.784 6.4511-6.8446 20.595-8.0304 32.43-2.719l6.1202 2.7466-2.0828 4.1315c-1.1455 2.2723-2.229 4.2955-2.4077 4.4959-0.17868 0.20046-2.4859-0.6837-5.1271-1.9648-2.8397-1.3774-7.2542-2.4854-10.802-2.7112-5.0346-0.32049-6.4513-0.02596-8.8047 1.8304-2.1811 1.7205-2.737 2.9022-2.5 5.3148 0.39837 4.0558 4.6586 6.9225 13.536 9.1082 9.1674 2.2571 15.302 5.5202 18.106 9.6316 3.1494 4.6164 2.7668 13.865-0.77964 18.845-4.7092 6.6134-18.424 9.595-30.298 6.5866zm-189.11-20.71c4.6361-11.712 10.125-25.57 12.198-30.795l3.7683-9.5 4.567-0.29964c3.0476-0.19995 4.7393 0.13274 5.0848 1 0.48401 1.2149 22.388 56.82 23.458 59.55 0.35852 0.91472-1.1037 1.25-5.4515 1.25h-5.9414l-2.9224-7.75-2.9224-7.75-10.406-0.28678c-6.5265-0.17986-10.811 0.11774-11.491 0.79822-0.59675 0.59675-2.2297 4.1008-3.6289 7.7868l-2.5439 6.7018-6.0986 0.29488-6.0986 0.29488zm29.352-2.5781c0-2.0195-7.7485-23.632-8.5687-23.9-0.51224-0.1675-2.6874 4.7553-4.8336 10.94-2.1462 6.1842-4.1069 11.807-4.357 12.494-0.3426 0.94178 1.7908 1.25 8.6523 1.25 5.0088 0 9.107-0.35245 9.107-0.78322zm24 19.473c0-4.112 0.80672-5.2845 17.5-25.435 9.625-11.618 17.5-21.378 17.5-21.689s-7.65-0.56534-17-0.56534h-17v-10h46.799l0.36209 4.5527 0.36209 4.5527-16.761 20.93c-9.2188 11.511-16.761 21.163-16.761 21.447s7.65 0.51755 17 0.51755h17v10h-49zm71.929 1.5607c-6.6843-3.3857-11.112-9.5538-12.764-17.783-0.64072-3.1904-1.165-13.826-1.165-23.634v-17.833h10.791l0.43106 19.75c0.27144 12.437 0.88906 20.861 1.668 22.75 4.1173 9.9863 15.407 13.328 23.116 6.8411 6.0101-5.0572 6.4357-6.8723 6.8205-29.091l0.35076-20.25h10.994l-0.35521 21.25c-0.33013 19.749-0.52175 21.621-2.7122 26.507-2.5436 5.6736-7.4974 10.673-12.75 12.868-1.844 0.77046-6.7429 1.3749-11.143 1.3749-6.5838 0-8.7302-0.44439-13.282-2.75zm113.19-27.345c6.5647-16.602 12.175-30.573 12.467-31.045 0.29217-0.47275 2.4973-0.85954 4.9004-0.85954 4.3523 0 4.3768 0.02026 6.3517 5.25 1.5588 4.1277 19.636 50.009 21.867 55.5 0.37268 0.91722-1.0832 1.25-5.4688 1.25h-5.9767l-2.9149-7.75-2.9149-7.75-11.119-0.28185-11.119-0.28185-2.9584 7.7818-2.9584 7.7818-6.0463 0.29533-6.0463 0.29533zm25.88 6.1598c0-1.761-8.2071-24.065-8.8551-24.065-0.35584 0-2.4082 5.0625-4.5608 11.25s-4.1128 11.812-4.3559 12.5c-0.33279 0.94086 1.8101 1.25 8.6649 1.25 5.0088 0 9.107-0.42088 9.107-0.93528z" fill="#fe5a5a"/>
 </g>
</svg>
