<?xml version="1.0" encoding="utf-8"?>
<!-- Generator: Adobe Illustrator 19.0.0, SVG Export Plug-In . SVG Version: 6.00 Build 0)  -->
<svg version="1.1" xmlns="http://www.w3.org/2000/svg" xmlns:xlink="http://www.w3.org/1999/xlink" x="0px" y="0px"
	 viewBox="-209 199 540 164" style="enable-background:new -209 199 540 164;" xml:space="preserve">
<style type="text/css">
	.st0{display:none;}
	.st1{display:inline;fill:#020202;stroke:#FFFFFF;stroke-miterlimit:10;}
	.st2{fill:#FCFCFC;}
	.st3{fill:none;stroke:#FFFFFF;stroke-width:2;stroke-miterlimit:10;}
	.st4{fill:none;stroke:#FFFFFF;stroke-miterlimit:10;}
</style>
<g id="Layer_2" class="st0">
	<rect x="-196.7" y="206.3" class="st1" width="522.7" height="149.3"/>
</g>
<g id="Layer_1" xmlns:cc="http://creativecommons.org/ns#" xmlns:dc="http://purl.org/dc/elements/1.1/" xmlns:rdf="http://www.w3.org/1999/02/22-rdf-syntax-ns#">
	<g transform="translate(.14071 -4.6474)">
		<path class="st2" d="M-9.3,334.5c-2.2-0.8-5.1-2.6-6.5-4l-2.6-2.7l4,2.7c3.7,2.5,4.5,2.7,12,2.2c4.7-0.3,12.3-1.8,18.4-3.7
			c14-4.2,19-5.1,23.5-4c5.7,1.3,6,2.5,0.8,2.7c-2.6,0.1-8.4,1.3-13,2.8C10.2,336-1.5,337.3-9.3,334.5L-9.3,334.5z M119.2,334.6
			c-2.3-1.3-2.1-1.4,3.5-0.9c7.3,0.7,13.5-1.5,13.5-4.6c0-2.9-3.5-4.4-8.4-3.7c-2.3,0.4-9.1,2.2-15.1,4.2c-12.7,4.1-21.7,4.7-27.5,2
			c-2.5-1.2-2.8-1.5-1.1-1.2c4.1,0.8,16.1-1.2,26.4-4.4c12.1-3.7,20.1-4.1,24-1c3.3,2.6,3.3,4.9,0.1,7.9
			C131.6,335.9,123,336.8,119.2,334.6L119.2,334.6z M-9.3,328.5c-4.2-2.3-4.2-2.3,0.9-1.8c3.5,0.4,7.1-0.4,15.8-3.2
			c12.8-4.3,22.5-5.4,29.3-3.5c2.5,0.7,4.7,1.5,4.9,1.9c0.2,0.3-3.7,0.7-8.8,0.7c-7.3,0.1-11.2,0.8-19.1,3.3
			C1.1,329.9-5.4,330.6-9.3,328.5L-9.3,328.5z M81.5,327c-4.6-1.4-4.8-2.5-0.3-2.1c2.3,0.2,6.9-0.6,11.7-2.2
			c18.5-6.1,29.5-7.6,37.6-5.2c3,0.9,6.5,2.5,7.8,3.6l2.4,2l-4.5-2c-2.5-1.1-5.9-2-7.7-2c-4.2,0-15.7,2.4-25.9,5.5
			C92.9,327.5,85.9,328.3,81.5,327L81.5,327z M-11.9,319.7c3.1-3.4,9.4-4.4,14.4-2.3c4.8,2,4.6,2.6-0.6,1.5c-5-1-10.3-0.3-13.8,1.8
			l-2.5,1.5L-11.9,319.7z M184.7,293.6c-0.5-0.2-2.2-0.7-3.8-1c-4.5-1-10.4-7.1-12.9-13.4c-3-7.6-3.3-25-0.6-32.8
			c5.7-16.3,23-21.2,33.9-9.7c5,5.2,7.2,11.8,7.6,23c0.6,15.7-3.4,26.5-11.6,31.2C193.7,292.8,186.8,294.3,184.7,293.6L184.7,293.6z
			 M193.8,289.1c7.9-3.6,11.4-11.8,11.4-27.1c0-16.2-4.4-25.2-13.8-28c-7.9-2.4-15.3,1.7-19.6,11c-1.8,3.8-2.1,6.4-2.1,17.1
			c0,12,0.1,12.8,3,18.4c2.3,4.6,4,6.4,7.4,8.2C185.4,291.5,188.3,291.6,193.8,289.1L193.8,289.1z M283.7,293.5
			c-0.5-0.2-2.2-0.6-3.8-1c-4.2-0.9-10.2-7-12.8-12.8c-1.6-3.7-2.4-7.9-2.7-14.4c-1.1-21.6,7.1-34.7,21.8-34.7
			c8.8,0,14.8,4.3,19.2,13.8c2,4.4,2.3,6.6,2.3,17.5c0,10.9-0.3,13.1-2.3,17.5c-2.5,5.5-6.3,10-10.2,12
			C292.5,292.8,285.3,294.1,283.7,293.5L283.7,293.5z M293.2,288.8c3.6-1.8,5-3.4,7.5-8.3c2.9-5.7,3-6.6,3-18.6
			c0-12-0.1-12.8-3-18.5c-2.4-4.7-3.9-6.4-7.5-8.2c-8.5-4.4-17-1-21.7,8.6c-2.6,5.4-2.8,6.5-2.8,18.7c0,12.6,0.1,13.2,3,18.5
			c2.3,4.2,4.1,6,7.5,7.8c2.5,1.2,5.6,2.3,7,2.3S290.7,290,293.2,288.8L293.2,288.8z M117.2,292.4c0,0,7-8,15.5-17
			c15.9-16.8,19.4-21.9,19.4-28.4c0-4.1-2.8-9.2-6.4-11.6c-3.5-2.3-11.6-2.2-15.8,0.2c-2,1.1-4.2,3.8-5.6,6.6
			c-1.9,6.9-5.8,6.6-4.7,2c2.1-8.4,9.2-13.6,18.5-13.6c15.1,0,22.2,13.4,14.3,27.1c-1.4,2.4-8.3,10.3-15.4,17.6
			c-7.1,7.3-12.9,14-12.9,14s6.4,0.5,14.2,0.4l14.2-0.3l0.9-3.8c1.4-5.9,3.7-4.9,3.7,1.8v5.5"/>
		<path class="st3" d="M12.6,291.8c-4.8-1.2-13.1-4.7-14.7-6.1c-0.2-0.2,4.1-9.9,4.1-9.9l6.7,3.3c12.3,6.1,24.2,5,25-2.4
			c0.4-4.4-2.9-6.7-14.7-10.3c-5.3-1.6-11.1-3.9-12.9-5c-7.8-4.8-8.2-17-0.8-24.8c6.5-6.8,20.6-8,32.4-2.7l6.1,2.7
			c0,0-4.3,8.4-4.5,8.6c-0.2,0.2-2.5-0.7-5.1-2c-2.8-1.4-7.3-2.5-10.8-2.7c-5-0.3-6.5,0-8.8,1.8c-2.2,1.7-2.7,2.9-2.5,5.3
			c0.4,4.1,4.7,6.9,13.5,9.1c9.2,2.3,15.3,5.5,18.1,9.6c3.1,4.6,2.8,13.9-0.8,18.8C38.1,291.8,24.4,294.8,12.6,291.8L12.6,291.8z
			 M-176.6,271c4.6-11.7,10.1-25.6,12.2-30.8l3.8-9.5h9.1c0,0,23,58.8,24,61.5l-11.4,0l-2.9-7.8l-2.8-7.4l-22.7,0.1l-5.9,15.1H-185
			L-176.6,271z M-147.2,268.5l-8.6-23.9l-9.6,23.9L-147.2,268.5L-147.2,268.5z M-123.2,282.9c0,0.4,35.4-42.7,35.4-42.7l-34.4,0v-10
			l47.5,0l0,9.1l-16.8,20.9c-9.2,11.5-17.7,21.8-17.7,22.1c0,0.3,35-0.1,35-0.1v10h-49L-123.2,282.9z M-51.3,289.5
			c-6.7-3.4-11.1-9.6-12.8-17.8c-0.6-3.2-1.2-13.8-1.2-23.6v-17.8h10.8L-54,250c0.3,12.4,0.9,20.9,1.7,22.8
			c4.1,10,15.4,13.3,23.1,6.8c6-5.1,6.4-6.9,6.8-29.1l0.4-20.3h11l-0.4,21.3c-0.3,19.7-0.5,21.6-2.7,26.5
			c-2.5,5.7-7.5,10.7-12.8,12.9c-1.8,0.8-6.7,1.4-11.1,1.4C-44.6,292.3-46.7,291.8-51.3,289.5L-51.3,289.5z"/>
		<polygon class="st4" points="60.8,311.8 64.7,319.8 73.6,321.1 67.2,327.4 68.7,336.2 60.8,332 52.9,336.2 54.4,327.4 48,321.1
			56.8,319.8 		"/>
	</g>
	<path class="st3" d="M57.6,266.1c4.6-11.7,10.1-25.6,12.2-30.8l3.8-9.5h9.1c0,0,23,58.8,24,61.5l-11.4,0l-2.9-7.8l-2.8-7.4
		l-22.7,0.1L61,287.4H49.1L57.6,266.1z"/>
	<polygon class="st3" points="86.9,263.5 78.3,239.6 68.7,263.5 86.9,263.5 	"/>
	<path class="st2" d="M216.1,288.1c0,0,7-8,15.5-17c15.9-16.8,19.4-21.9,19.4-28.4c0-4.1-2.8-9.2-6.4-11.6
		c-3.5-2.3-11.6-2.2-15.8,0.2c-2,1.1-4.2,3.8-5.6,6.6c-1.9,6.9-5.8,6.6-4.7,2c2.1-8.4,9.2-13.6,18.5-13.6
		c15.1,0,22.2,13.4,14.3,27.1c-1.4,2.4-8.3,10.3-15.4,17.6c-7.1,7.3-12.9,14-12.9,14s6.4,0.5,14.2,0.4l14.2-0.3l0.9-3.8
		c1.4-5.9,3.7-4.9,3.7,1.8v5.5"/>
</g>
</svg>
